# xmcd
#
# Track frame offsets:
#	150
#	19592
#	35952
#	53934
#	70484
#	83950
#	101015
#	118464
#	135220
#	155912
#
# Disc length: 2360 seconds
#
# Revision: 2
# Processed by: cddbd v1.5.2PL0 Copyright (c) Steve Scherf et al.
# Submitted via: audiograbber 1.83.01
#
DISCID=9109360a
DTITLE=Pat Green - What I'm For
DYEAR=2009
DGENRE=Country
TTITLE0=Footsteps Of Our Fathers
TTITLE1=What I'm For
TTITLE2=Feeling Pretty Good Tonight
TTITLE3=Lucky
TTITLE4=In This World
TTITLE5=Country Star
TTITLE6=Let Me
TTITLE7=In It For The Money
TTITLE8=Carry On
TTITLE9=In The Middle Of The Night
EXTD=
EXTT0=
EXTT1=
EXTT2=
EXTT3=
EXTT4=
EXTT5=
EXTT6=
EXTT7=
EXTT8=
EXTT9=
PLAYORDER=
